<?xml version="1.0" encoding="UTF-8" standalone="no"?><!-- Generator: Gravit.io --><svg xmlns="http://www.w3.org/2000/svg" xmlns:xlink="http://www.w3.org/1999/xlink" style="isolation:isolate" viewBox="0 0 90 90" width="90pt" height="90pt"><defs><clipPath id="_clipPath_hKsOxa4SXFfydmd9biG7orkzIEVJFPoh"><rect width="90" height="90"/></clipPath></defs><g clip-path="url(#_clipPath_hKsOxa4SXFfydmd9biG7orkzIEVJFPoh)"><g><path d=" M 90 15.001 C 90 7.119 82.884 0 75 0 L 15 0 C 7.116 0 0 7.119 0 15.001 L 0 74.999 C 0 82.881 7.116 90 15.001 90 L 45 90 L 45 56 L 34 56 L 34 41 L 45 41 L 45 35.156 C 45 25.077 52.568 16 61.875 16 L 74 16 L 74 31 L 61.875 31 C 60.548 31 59 32.611 59 35.024 L 59 41 L 74 41 L 74 56 L 59 56 L 59 90 L 75 90 C 82.884 90 90 82.881 90 74.999 L 90 15.001 L 90 15.001 Z " fill="rgb(250,250,250)"/></g></g></svg>