<?xml version="1.0" encoding="UTF-8" standalone="no"?><!-- Generator: Gravit.io --><svg xmlns="http://www.w3.org/2000/svg" xmlns:xlink="http://www.w3.org/1999/xlink" style="isolation:isolate" viewBox="0 0 50 60" width="50pt" height="60pt"><defs><clipPath id="_clipPath_YuJKQBTSpoLX5a0oMmVWVgcooj8voLex"><rect width="50" height="60"/></clipPath></defs><g clip-path="url(#_clipPath_YuJKQBTSpoLX5a0oMmVWVgcooj8voLex)"><path d=" M 44.416 10.199 C 43.844 9.44 43.011 8.949 42.07 8.817 L 32.718 7.503 L 33.135 4.532 C 33.246 3.741 33.042 2.952 32.558 2.31 C 32.074 1.668 31.373 1.254 30.581 1.143 L 22.661 0.03 C 21.004 -0.204 19.498 0.974 19.273 2.583 L 18.855 5.554 L 9.504 4.24 C 7.54 3.962 5.754 5.358 5.487 7.266 L 4.868 11.667 L 13.221 12.841 L 7.366 18.696 C 7.276 18.786 7.224 18.895 7.165 19.001 L 6.133 19.001 L 6.133 56.272 C 6.133 58.329 7.806 60.001 9.862 60.001 L 38.403 60.001 C 40.46 60.001 42.132 58.328 42.132 56.272 L 42.132 19 L 37.132 19 L 37.132 16.201 L 44.479 17.233 L 45.097 12.834 C 45.229 11.893 44.988 10.957 44.416 10.199 Z  M 21.253 2.861 C 21.328 2.326 21.824 1.929 22.382 2.01 L 30.304 3.123 C 30.566 3.16 30.8 3.299 30.962 3.514 C 31.124 3.728 31.192 3.991 31.155 4.252 L 30.738 7.223 L 20.835 5.831 L 21.253 2.861 Z  M 9.89 19 L 13.476 15.414 L 17.061 19 L 9.89 19 Z  M 21.132 19 L 21.132 18 L 27.132 18 L 27.132 19 L 21.132 19 Z  M 32.132 19 L 32.132 18 L 35.132 18 L 35.132 19 L 32.132 19 Z  M 30.132 16 L 30.132 19 L 29.132 19 L 29.132 16 L 19.132 16 L 19.132 18.243 L 13.813 12.924 L 35.702 16 L 30.132 16 Z " fill="rgb(250,250,250)"/></g></svg>