<?xml version="1.0" encoding="UTF-8" standalone="no"?><!-- Generator: Gravit.io --><svg xmlns="http://www.w3.org/2000/svg" xmlns:xlink="http://www.w3.org/1999/xlink" style="isolation:isolate" viewBox="0 0 420 330" width="420pt" height="330pt"><defs><clipPath id="_clipPath_JTpllcrp0vlTRw0AZ0HteMcObVMjyhMN"><rect width="420" height="330"/></clipPath></defs><g clip-path="url(#_clipPath_JTpllcrp0vlTRw0AZ0HteMcObVMjyhMN)"><g><path d="M 26.25 0 L 393.75 0 C 408.238 0 420 11.762 420 26.25 L 420 303.75 C 420 318.238 408.238 330 393.75 330 L 26.25 330 C 11.762 330 0 318.238 0 303.75 L 0 26.25 C 0 11.762 11.762 0 26.25 0 Z" style="stroke:none;fill:#333333;stroke-miterlimit:10;"/><path d="M 52.353 60 L 367.647 60 C 379.984 60 390 70.016 390 82.353 L 390 277.647 C 390 289.984 379.984 300 367.647 300 L 52.353 300 C 40.016 300 30 289.984 30 277.647 L 30 82.353 C 30 70.016 40.016 60 52.353 60 Z" style="stroke:none;fill:#D83232;stroke-miterlimit:10;"/><circle vector-effect="non-scaling-stroke" cx="374.9999999999999" cy="34.99999999999992" r="15" fill="rgb(216,50,50)"/><circle vector-effect="non-scaling-stroke" cx="334.9999999999999" cy="34.99999999999992" r="15" fill="rgb(255,255,255)"/><circle vector-effect="non-scaling-stroke" cx="294.9999999999999" cy="34.99999999999992" r="15" fill="rgb(255,255,255)"/><rect x="80" y="130" width="90" height="10" transform="matrix(0.934,0.358,-0.358,0.934,56.682,-35.829)" fill="rgb(235,235,235)"/><rect x="250" y="130" width="90" height="10" transform="matrix(0.934,-0.358,0.358,0.934,-28.786,114.685)" fill="rgb(235,235,235)"/><path d="M 131.66 179.216 L 295.508 242.112 C 301.818 244.534 305.336 250.684 303.358 255.837 L 303.358 255.837 C 301.38 260.989 294.651 263.206 288.34 260.784 L 124.492 197.888 C 118.182 195.466 114.664 189.316 116.642 184.163 L 116.642 184.163 C 118.62 179.011 125.349 176.794 131.66 179.216 Z" style="stroke:none;fill:#EBEBEB;stroke-miterlimit:10;"/><path d=" M 231.137 212.3 C 236.108 199.351 249.132 192.288 260.203 196.538 C 271.275 200.788 276.228 214.751 271.257 227.7 C 266.286 240.649 253.262 247.712 242.191 243.462 C 231.119 239.212 226.166 225.249 231.137 212.3 Z " fill="rgb(235,235,235)"/></g></g></svg>