<?xml version="1.0" encoding="UTF-8" standalone="no"?>
<!-- Generator: Gravit.io -->
<svg xmlns="http://www.w3.org/2000/svg" xmlns:xlink="http://www.w3.org/1999/xlink" style="isolation:isolate" viewBox="0 0 97.395 97.395" width="97.395pt" height="97.395pt"><defs><clipPath id="_clipPath_e7J4hPBWuDDjXzaoFWgr5N0EggU8Cobd"><rect width="97.395" height="97.395"/></clipPath></defs><g clip-path="url(#_clipPath_e7J4hPBWuDDjXzaoFWgr5N0EggU8Cobd)"><g><path d=" M 12.501 0 L 84.894 0 C 91.769 0 97.394 5.09 97.394 12.5 L 97.394 84.895 C 97.394 92.305 91.769 97.395 84.894 97.395 L 12.501 97.395 C 5.624 97.395 0 92.305 0 84.895 L 0 12.5 C 0 5.09 5.624 0 12.501 0 L 12.501 0 L 12.501 0 Z  M 70.948 10.821 C 68.536 10.821 66.565 12.793 66.565 15.206 L 66.565 25.701 C 66.565 28.113 68.536 30.086 70.948 30.086 L 81.956 30.086 C 84.368 30.086 86.341 28.113 86.341 25.701 L 86.341 15.206 C 86.341 12.793 84.368 10.821 81.956 10.821 L 70.948 10.821 L 70.948 10.821 L 70.948 10.821 Z  M 86.387 41.188 L 77.815 41.188 C 78.626 43.836 79.065 46.641 79.065 49.543 C 79.065 65.743 65.509 78.875 48.79 78.875 C 32.072 78.875 18.518 65.743 18.518 49.543 C 18.518 46.639 18.956 43.835 19.768 41.188 L 10.823 41.188 L 10.823 82.329 C 10.823 84.458 12.565 86.201 14.695 86.201 L 82.517 86.201 C 84.647 86.201 86.389 84.459 86.389 82.329 L 86.389 41.188 L 86.387 41.188 L 86.387 41.188 Z  M 48.789 29.533 C 37.987 29.533 29.229 38.018 29.229 48.486 C 29.229 58.954 37.987 67.439 48.789 67.439 C 59.592 67.439 68.351 58.954 68.351 48.486 C 68.351 38.018 59.593 29.533 48.789 29.533 Z " fill="rgb(250,250,250)"/></g></g></svg>