<?xml version="1.0" encoding="UTF-8" standalone="no"?>
<!-- Generator: Gravit.io -->
<svg xmlns="http://www.w3.org/2000/svg" xmlns:xlink="http://www.w3.org/1999/xlink" style="isolation:isolate" viewBox="0 0 485.211 485.211" width="485.211pt" height="485.211pt"><defs><clipPath id="_clipPath_gSoSTObn3pkI7hA6t2LnBWSs6SOO1Iuy"><rect width="485.211" height="485.211"/></clipPath></defs><g clip-path="url(#_clipPath_gSoSTObn3pkI7hA6t2LnBWSs6SOO1Iuy)"><g><path d=" M 485.211 363.906 C 485.211 374.543 482.219 384.404 477.426 393.08 L 324.225 221.67 L 475.765 89.086 C 481.66 98.441 485.211 109.43 485.211 121.305 L 485.211 363.906 L 485.211 363.906 Z  M 242.606 252.793 L 453.469 68.293 C 444.816 63.556 435.072 60.651 424.561 60.651 L 60.651 60.651 C 50.127 60.651 40.38 63.556 31.762 68.293 L 242.606 252.793 L 242.606 252.793 Z  M 301.393 241.631 L 252.584 284.365 C 249.729 286.852 246.174 288.094 242.606 288.094 C 239.036 288.094 235.481 286.852 232.626 284.365 L 183.806 241.629 L 28.667 415.23 C 37.966 421.064 48.864 424.559 60.65 424.559 L 424.561 424.559 C 436.345 424.559 447.248 421.064 456.544 415.23 L 301.393 241.631 L 301.393 241.631 Z  M 9.448 89.085 C 3.554 98.44 0 109.429 0 121.305 L 0 363.907 C 0 374.544 2.978 384.405 7.789 393.081 L 160.972 221.641 L 9.448 89.085 L 9.448 89.085 Z " fill="rgb(250,250,250)"/></g></g></svg>