<?xml version="1.0" encoding="UTF-8" standalone="no"?><!-- Generator: Gravit.io --><svg xmlns="http://www.w3.org/2000/svg" xmlns:xlink="http://www.w3.org/1999/xlink" style="isolation:isolate" viewBox="0 0 55 35" width="55pt" height="35pt"><defs><clipPath id="_clipPath_SCqR66mXhNfhu3etsqrYZfKad8I0zVm3"><rect width="55" height="35"/></clipPath></defs><g clip-path="url(#_clipPath_SCqR66mXhNfhu3etsqrYZfKad8I0zVm3)"><path d=" M 20.896 15.523 L 17.128 15.523 L 17.128 19.012 C 17.128 19.012 16.33 19.597 15.096 19.582 C 13.863 19.565 13.305 18.944 13.305 18.944 L 13.305 15.524 L 9.746 15.524 C 9.746 15.524 9.302 15.086 9.183 13.934 C 9.066 12.783 9.674 11.851 9.674 11.851 L 13.443 11.851 L 13.443 8.231 C 13.443 8.231 14.219 7.832 15.333 7.863 C 16.449 7.896 17.267 8.299 17.267 8.299 L 17.251 11.85 L 20.81 11.85 C 20.81 11.85 21.432 12.617 21.483 13.543 C 21.534 14.47 20.896 15.523 20.896 15.523 L 20.896 15.523 L 20.896 15.523 Z  M 38.18 19.5 C 36.53 19.5 35.2 18.218 35.2 16.634 C 35.2 15.048 36.53 13.769 38.18 13.769 C 39.823 13.769 41.164 15.048 41.164 16.634 C 41.164 18.219 39.823 19.5 38.18 19.5 L 38.18 19.5 L 38.18 19.5 Z  M 38.18 11.616 C 36.53 11.616 35.2 10.335 35.2 8.752 C 35.2 7.165 36.53 5.886 38.18 5.886 C 39.823 5.886 41.164 7.165 41.164 8.752 C 41.164 10.336 39.823 11.616 38.18 11.616 L 38.18 11.616 L 38.18 11.616 Z  M 45.608 15.848 C 43.958 15.848 42.627 14.567 42.627 12.983 C 42.627 11.397 43.958 10.117 45.608 10.117 C 47.251 10.117 48.591 11.397 48.591 12.983 C 48.591 14.567 47.251 15.848 45.608 15.848 L 45.608 15.848 L 45.608 15.848 Z  M 50.083 6.19 C 42.818 -5.277 31.875 2.701 31.875 2.701 C 31.165 3.216 29.856 3.64 28.967 3.642 L 26.036 3.644 C 25.147 3.645 23.838 3.221 23.129 2.706 C 23.129 2.706 12.185 -5.274 4.919 6.193 C -2.344 17.655 0.583 30.138 0.583 30.138 C 1.096 33.195 2.786 35.235 5.976 34.978 C 9.156 34.723 16.06 26.747 16.06 26.747 C 16.63 26.09 17.825 25.553 18.712 25.553 L 36.285 25.55 C 37.173 25.55 38.367 26.087 38.936 26.744 C 38.936 26.744 45.841 34.72 49.026 34.975 C 52.212 35.232 53.906 33.19 54.416 30.135 C 54.415 30.135 57.347 17.654 50.083 6.19 L 50.083 6.19 L 50.083 6.19 Z  M 42.884 20.456 C 42.884 18.825 44.263 17.5 45.961 17.5 C 47.659 17.5 49.038 18.825 49.038 20.456 C 49.038 22.087 47.659 23.412 45.961 23.412 C 44.263 23.412 42.884 22.087 42.884 20.456 Z " fill-rule="evenodd" fill="rgb(250,250,250)"/></g></svg>