<?xml version="1.0" encoding="UTF-8" standalone="no"?><!-- Generator: Gravit.io --><svg xmlns="http://www.w3.org/2000/svg" xmlns:xlink="http://www.w3.org/1999/xlink" style="isolation:isolate" viewBox="0 0 80 80" width="80pt" height="80pt"><defs><clipPath id="_clipPath_VfuWSEQmlA6nOV9M0HnasCfZunlKocuu"><rect width="80" height="80"/></clipPath></defs><g clip-path="url(#_clipPath_VfuWSEQmlA6nOV9M0HnasCfZunlKocuu)"><g><g><path d=" M 72 0 L 8 0 C 3.6 0 0 3.6 0 8 L 0 72 C 0 76.4 3.6 80 8 80 L 72 80 C 76.4 80 80 76.4 80 72 L 80 8 C 80 3.6 76.4 0 72 0 Z  M 62.8 29.2 C 62.4 47.6 50.8 60.4 33.2 61.2 C 26 61.6 20.8 59.2 16 56.4 C 21.2 57.2 28 55.2 31.6 52 C 26.4 51.6 23.2 48.8 21.6 44.4 C 23.2 44.8 24.8 44.4 26 44.4 C 21.2 42.8 18 40 17.6 33.6 C 18.8 34.4 20.4 34.8 22 34.8 C 18.4 32.8 16 25.2 18.8 20.4 C 24 26 30.4 30.8 40.8 31.6 C 38 20.4 53.2 14.4 59.2 22 C 62 21.6 64 20.4 66 19.6 C 65.2 22.4 63.6 24 61.6 25.6 C 63.6 25.2 65.6 24.8 67.2 24 C 66.8 26 64.8 27.6 62.8 29.2 Z " fill="rgb(250,250,250)"/></g></g></g></svg>