<?xml version="1.0" encoding="UTF-8" standalone="no"?><!-- Generator: Gravit.io --><svg xmlns="http://www.w3.org/2000/svg" xmlns:xlink="http://www.w3.org/1999/xlink" style="isolation:isolate" viewBox="0 0 80 80" width="80pt" height="80pt"><defs><clipPath id="_clipPath_HeV94ru11FydGZT61Scq5bNJVYCUiuCP"><rect width="80" height="80"/></clipPath></defs><g clip-path="url(#_clipPath_HeV94ru11FydGZT61Scq5bNJVYCUiuCP)"><g><path d=" M 74.902 0 L 5.109 0 C 2.286 0 0 2.286 0 5.103 L 0 74.897 C 0 77.714 2.286 80 5.109 80 L 74.897 80 C 77.714 80 80 77.714 80 74.897 L 80 5.103 C 80.006 2.281 77.719 0 74.902 0 Z  M 66.361 48.747 C 67.823 50.238 70.996 52.739 70.42 55.285 C 69.889 57.622 66.4 56.769 63.013 56.905 C 59.146 57.069 56.854 57.153 54.528 55.285 C 53.433 54.398 52.789 53.348 51.739 52.174 C 50.785 51.113 49.583 49.21 47.946 49.284 C 45.005 49.431 45.925 53.529 44.88 56.323 C 28.532 58.898 21.966 48.798 16.174 38.998 C 13.368 34.25 9.315 24.055 9.315 24.055 L 20.876 24.015 C 20.876 24.015 24.585 30.761 25.568 32.5 C 26.403 33.979 27.323 35.153 28.272 36.474 C 29.068 37.57 30.327 39.715 31.704 39.54 C 33.945 39.252 34.352 30.558 32.963 27.645 C 32.41 26.465 31.083 26.053 29.711 25.652 C 30.174 22.728 42.679 22.118 44.7 24.388 C 47.635 27.685 42.667 36.864 46.687 39.54 C 52.332 36.582 57.153 24.196 57.153 24.196 L 70.691 24.281 C 70.691 24.281 68.574 30.976 66.355 33.945 C 65.062 35.684 60.772 39.557 60.941 42.43 C 61.077 44.705 64.566 46.918 66.361 48.747 Z " fill="rgb(250,250,250)"/></g></g></svg>