<?xml version="1.0" encoding="UTF-8" standalone="no"?>
<!-- Generator: Gravit.io -->
<svg xmlns="http://www.w3.org/2000/svg" xmlns:xlink="http://www.w3.org/1999/xlink" style="isolation:isolate" viewBox="0 0 461.55 461.55" width="461.55pt" height="461.55pt"><defs><clipPath id="_clipPath_SZS93cWtfkmhL2VFqTTQWDivVWMn3k8z"><rect width="461.55" height="461.55"/></clipPath></defs><g clip-path="url(#_clipPath_SZS93cWtfkmhL2VFqTTQWDivVWMn3k8z)"><g><g><path d=" M 345.525 229.5 C 345.525 183.6 320.025 145.35 281.775 127.5 L 281.775 183.6 L 345.525 247.35 C 345.525 239.7 345.525 234.6 345.525 229.5 Z  M 409.275 229.5 C 409.275 252.45 404.175 275.4 396.525 295.8 L 434.775 334.05 C 452.625 303.45 460.275 265.2 460.275 226.95 C 460.275 117.3 383.775 25.5 281.775 2.55 L 281.775 56.1 C 355.725 81.6 409.275 147.9 409.275 229.5 Z  M 34.425 0 L 1.275 33.15 L 121.125 153 L 1.275 153 L 1.275 306 L 103.275 306 L 230.775 433.5 L 230.775 262.65 L 340.425 372.3 C 322.574 385.05 304.725 395.25 281.775 402.901 L 281.775 456.451 C 317.475 448.801 348.075 433.501 376.125 410.551 L 427.125 461.551 L 460.275 428.402 L 230.775 198.902 L 34.425 0 L 34.425 0 Z  M 230.775 25.5 L 177.225 79.05 L 230.775 132.6 L 230.775 25.5 L 230.775 25.5 Z " fill="rgb(250,250,250)"/></g></g></g></svg>