<?xml version="1.0" encoding="UTF-8" standalone="no"?>
<!-- Generator: Gravit.io -->
<svg xmlns="http://www.w3.org/2000/svg" xmlns:xlink="http://www.w3.org/1999/xlink" style="isolation:isolate" viewBox="0 0 512 512" width="512pt" height="512pt"><defs><clipPath id="_clipPath_XFqJ7uQmdC03Uw4J2gvnP7XfblOtGMLy"><rect width="512" height="512"/></clipPath></defs><g clip-path="url(#_clipPath_XFqJ7uQmdC03Uw4J2gvnP7XfblOtGMLy)"><path d=" M 506.703 145.655 C 506.703 145.655 501.406 107.696 486.4 90.924 C 466.979 68.855 444.91 68.855 435.2 67.972 C 363.697 62.676 256 61.793 256 61.793 L 256 61.793 C 256 61.793 148.303 62.676 76.8 67.972 C 67.09 68.855 45.021 69.738 25.6 90.924 C 9.71 107.697 5.297 145.655 5.297 145.655 C 5.297 145.655 0 190.676 0 235.697 L 0 277.187 C 0 322.208 5.297 366.346 5.297 366.346 C 5.297 366.346 10.594 404.305 25.6 421.077 C 45.021 443.146 70.621 442.263 82.097 444.912 C 122.703 449.324 256 450.207 256 450.207 C 256 450.207 363.697 450.207 435.2 444.028 C 444.91 443.145 466.979 442.262 486.4 421.076 C 501.407 404.304 506.703 366.345 506.703 366.345 C 506.703 366.345 512 321.324 512 277.186 L 512 235.696 C 512 190.676 506.703 145.655 506.703 145.655 Z  M 194.207 166.841 L 194.207 358.4 L 361.931 264.828 L 194.207 166.841 Z " fill-rule="evenodd" fill="rgb(250,250,250)"/></g></svg>