<?xml version="1.0" encoding="UTF-8" standalone="no"?>
<!-- Generator: Gravit.io -->
<svg xmlns="http://www.w3.org/2000/svg" xmlns:xlink="http://www.w3.org/1999/xlink" style="isolation:isolate" viewBox="0 0 90 90" width="90pt" height="90pt"><defs><clipPath id="_clipPath_Zp9ZTtGS4DfkKkhBaXipgtTdyJG3BsXQ"><rect width="90" height="90"/></clipPath></defs><g clip-path="url(#_clipPath_Zp9ZTtGS4DfkKkhBaXipgtTdyJG3BsXQ)"><g><path d=" M 70.939 65.832 L 66 65.832 L 66.023 62.963 C 66.023 61.688 67.07 60.645 68.349 60.645 L 68.664 60.645 C 69.946 60.645 70.996 61.688 70.996 62.963 L 70.939 65.832 L 70.939 65.832 Z  M 52.413 59.684 C 51.16 59.684 50.135 60.526 50.135 61.557 L 50.135 75.51 C 50.135 76.539 51.16 77.379 52.413 77.379 C 53.671 77.379 54.697 76.539 54.697 75.51 L 54.697 61.557 C 54.697 60.525 53.671 59.684 52.413 59.684 Z  M 82.5 51.879 L 82.5 78.423 C 82.5 84.79 76.979 90 70.23 90 L 19.771 90 C 13.02 90 7.5 84.79 7.5 78.423 L 7.5 51.879 C 7.5 45.512 13.02 40.301 19.771 40.301 L 70.23 40.301 C 76.979 40.301 82.5 45.512 82.5 51.879 Z  M 23.137 81.305 L 23.133 53.344 L 29.388 53.346 L 29.388 49.203 L 12.714 49.178 L 12.714 53.251 L 17.919 53.266 L 17.919 81.305 L 23.137 81.305 L 23.137 81.305 Z  M 41.887 57.509 L 36.672 57.509 L 36.672 72.44 C 36.672 74.6 36.803 75.68 36.664 76.061 C 36.24 77.219 34.334 78.449 33.591 76.186 C 33.465 75.79 33.576 74.595 33.574 72.543 L 33.553 57.509 L 28.367 57.509 L 28.383 72.307 C 28.387 74.575 28.332 76.266 28.401 77.036 C 28.528 78.393 28.483 79.975 29.742 80.879 C 32.088 82.569 36.585 80.627 37.71 78.211 L 37.7 81.294 L 41.888 81.299 L 41.887 57.509 L 41.887 57.509 L 41.887 57.509 Z  M 58.57 74.607 L 58.559 62.18 C 58.555 57.444 55.012 54.608 50.203 58.44 L 50.224 49.201 L 45.015 49.209 L 44.99 81.099 L 49.274 81.037 L 49.664 79.051 C 55.137 84.072 58.578 80.631 58.57 74.607 Z  M 74.891 72.96 L 70.981 72.981 C 70.979 73.136 70.973 73.315 70.971 73.51 L 70.971 75.692 C 70.971 76.86 70.006 77.811 68.834 77.811 L 68.068 77.811 C 66.894 77.811 65.929 76.86 65.929 75.692 L 65.929 75.45 L 65.929 73.05 L 65.929 69.953 L 74.883 69.953 L 74.883 66.583 C 74.883 64.12 74.82 61.658 74.616 60.25 C 73.975 55.796 67.723 55.089 64.565 57.369 C 63.574 58.081 62.817 59.034 62.377 60.314 C 61.933 61.595 61.712 63.345 61.712 65.568 L 61.712 72.978 C 61.714 85.296 76.676 83.555 74.891 72.96 Z  M 54.833 32.732 C 55.102 33.386 55.52 33.916 56.087 34.316 C 56.647 34.71 57.363 34.908 58.221 34.908 C 58.973 34.908 59.639 34.705 60.219 34.286 C 60.797 33.869 61.284 33.246 61.682 32.415 L 61.583 34.461 L 67.396 34.461 L 67.396 9.74 L 62.82 9.74 L 62.82 28.98 C 62.82 30.022 61.962 30.875 60.913 30.875 C 59.87 30.875 59.009 30.022 59.009 28.98 L 59.009 9.74 L 54.233 9.74 L 54.233 26.414 C 54.233 28.538 54.272 29.954 54.335 30.672 C 54.4 31.385 54.564 32.069 54.833 32.732 Z  M 37.217 18.77 C 37.217 16.397 37.415 14.544 37.808 13.208 C 38.204 11.877 38.915 10.807 39.945 10 C 40.972 9.189 42.287 8.783 43.886 8.783 C 45.231 8.783 46.383 9.047 47.345 9.564 C 48.312 10.084 49.058 10.759 49.575 11.592 C 50.102 12.428 50.46 13.287 50.651 14.166 C 50.846 15.057 50.942 16.401 50.942 18.214 L 50.942 24.466 C 50.942 26.759 50.85 28.446 50.671 29.517 C 50.494 30.591 50.114 31.587 49.525 32.521 C 48.945 33.445 48.196 34.136 47.288 34.577 C 46.37 35.022 45.32 35.24 44.134 35.24 C 42.809 35.24 41.693 35.057 40.773 34.675 C 39.85 34.295 39.137 33.722 38.629 32.961 C 38.116 32.199 37.755 31.271 37.537 30.189 C 37.318 29.108 37.214 27.482 37.214 25.315 L 37.217 18.77 L 37.217 18.77 L 37.217 18.77 Z  M 41.77 28.59 C 41.77 29.99 42.812 31.133 44.081 31.133 C 45.351 31.133 46.389 29.99 46.389 28.59 L 46.389 15.43 C 46.389 14.032 45.351 12.889 44.081 12.889 C 42.812 12.889 41.77 14.032 41.77 15.43 L 41.77 28.59 L 41.77 28.59 Z  M 25.682 35.235 L 31.166 35.235 L 31.172 16.275 L 37.652 0.033 L 31.654 0.033 L 28.209 12.097 L 24.715 0 L 18.779 0 L 25.673 16.284 L 25.682 35.235 L 25.682 35.235 Z " fill="rgb(250,250,250)"/></g></g></svg>